<svg width="14" height="14" viewBox="0 0 14 14" fill="none" xmlns="http://www.w3.org/2000/svg">
<path d="M3.15625 4.03711V13.5469H0.616211V4.03711H3.15625ZM0.458008 1.55859C0.458008 1.18945 0.586914 0.884766 0.844727 0.644531C1.10254 0.404297 1.44824 0.28418 1.88184 0.28418C2.30957 0.28418 2.65234 0.404297 2.91016 0.644531C3.17383 0.884766 3.30566 1.18945 3.30566 1.55859C3.30566 1.92773 3.17383 2.23242 2.91016 2.47266C2.65234 2.71289 2.30957 2.83301 1.88184 2.83301C1.44824 2.83301 1.10254 2.71289 0.844727 2.47266C0.586914 2.23242 0.458008 1.92773 0.458008 1.55859ZM8.08656 6.06738V13.5469H5.55531V4.03711H7.92836L8.08656 6.06738ZM7.71742 8.45801H7.03188C7.03188 7.75488 7.1227 7.12207 7.30434 6.55957C7.48598 5.99121 7.74086 5.50781 8.06898 5.10938C8.39711 4.70508 8.78676 4.39746 9.23793 4.18652C9.69496 3.96973 10.2047 3.86133 10.7672 3.86133C11.2125 3.86133 11.6198 3.92578 11.9889 4.05469C12.358 4.18359 12.6745 4.38867 12.9381 4.66992C13.2077 4.95117 13.4127 5.32324 13.5534 5.78613C13.6998 6.24902 13.7731 6.81445 13.7731 7.48242V13.5469H11.2243V7.47363C11.2243 7.05176 11.1657 6.72363 11.0485 6.48926C10.9313 6.25488 10.7584 6.09082 10.5299 5.99707C10.3073 5.89746 10.0319 5.84766 9.70375 5.84766C9.36391 5.84766 9.06801 5.91504 8.81605 6.0498C8.56996 6.18457 8.36488 6.37207 8.20082 6.6123C8.04262 6.84668 7.9225 7.12207 7.84047 7.43848C7.75844 7.75488 7.71742 8.09473 7.71742 8.45801Z" fill="black"/>
</svg>
