<svg width="18" height="17" viewBox="0 0 18 17" fill="none" xmlns="http://www.w3.org/2000/svg">
<path d="M8.95953 4.29498C6.63043 4.29498 4.75177 6.17365 4.75177 8.50275C4.75177 10.8318 6.63043 12.7105 8.95953 12.7105C11.2886 12.7105 13.1673 10.8318 13.1673 8.50275C13.1673 6.17365 11.2886 4.29498 8.95953 4.29498ZM8.95953 11.2383C7.45441 11.2383 6.22394 10.0115 6.22394 8.50275C6.22394 6.99396 7.45074 5.76715 8.95953 5.76715C10.4683 5.76715 11.6951 6.99396 11.6951 8.50275C11.6951 10.0115 10.4647 11.2383 8.95953 11.2383ZM14.3209 4.12286C14.3209 4.66852 13.8814 5.10431 13.3394 5.10431C12.7938 5.10431 12.358 4.66486 12.358 4.12286C12.358 3.58087 12.7974 3.14142 13.3394 3.14142C13.8814 3.14142 14.3209 3.58087 14.3209 4.12286ZM17.1077 5.11896C17.0455 3.80426 16.7452 2.63971 15.782 1.68024C14.8226 0.720764 13.658 0.420471 12.3433 0.354553C10.9883 0.277649 6.92706 0.277649 5.57208 0.354553C4.26105 0.416809 3.0965 0.717102 2.13336 1.67657C1.17023 2.63605 0.873596 3.8006 0.807678 5.1153C0.730774 6.47028 0.730774 10.5316 0.807678 11.8865C0.869934 13.2012 1.17023 14.3658 2.13336 15.3253C3.0965 16.2847 4.25739 16.585 5.57208 16.6509C6.92706 16.7278 10.9883 16.7278 12.3433 16.6509C13.658 16.5887 14.8226 16.2884 15.782 15.3253C16.7415 14.3658 17.0418 13.2012 17.1077 11.8865C17.1846 10.5316 17.1846 6.47394 17.1077 5.11896ZM15.3572 13.3404C15.0716 14.0582 14.5186 14.6111 13.7972 14.9005C12.7169 15.3289 10.1534 15.23 8.95953 15.23C7.76569 15.23 5.19855 15.3253 4.12189 14.9005C3.40411 14.6148 2.85114 14.0618 2.56183 13.3404C2.13336 12.2601 2.23224 9.69659 2.23224 8.50275C2.23224 7.3089 2.13702 4.74176 2.56183 3.6651C2.84747 2.94733 3.40045 2.39435 4.12189 2.10504C5.20221 1.67657 7.76569 1.77545 8.95953 1.77545C10.1534 1.77545 12.7205 1.68024 13.7972 2.10504C14.515 2.39069 15.0679 2.94366 15.3572 3.6651C15.7857 4.74542 15.6868 7.3089 15.6868 8.50275C15.6868 9.69659 15.7857 12.2637 15.3572 13.3404Z" fill="black"/>
</svg>
