<svg width="19" height="16" viewBox="0 0 19 16" fill="none" xmlns="http://www.w3.org/2000/svg">
<path d="M16.8226 3.84207C16.8345 4.00862 16.8345 4.17521 16.8345 4.34176C16.8345 9.42184 12.968 15.2753 5.90101 15.2753C3.72382 15.2753 1.70131 14.6447 0 13.5502C0.309338 13.5859 0.606738 13.5978 0.927979 13.5978C2.72443 13.5978 4.37816 12.991 5.69875 11.956C4.00935 11.9203 2.59358 10.8138 2.10579 9.29099C2.34375 9.32666 2.58168 9.35046 2.83154 9.35046C3.17655 9.35046 3.52159 9.30286 3.8428 9.21961C2.08202 8.86267 0.761389 7.31605 0.761389 5.44819V5.40062C1.27295 5.68616 1.86786 5.86461 2.49836 5.88838C1.46331 5.19833 0.785193 4.02052 0.785193 2.68802C0.785193 1.97421 0.975513 1.31986 1.30865 0.748791C3.20032 3.08064 6.04376 4.60345 9.23218 4.77004C9.17271 4.48451 9.137 4.18711 9.137 3.88967C9.137 1.77195 10.8502 0.046875 12.9798 0.046875C14.0862 0.046875 15.0856 0.510864 15.7875 1.26039C16.656 1.09384 17.4888 0.772595 18.2265 0.33241C17.9409 1.22472 17.3342 1.97424 16.5371 2.4501C17.3104 2.36686 18.0599 2.15266 18.7499 1.85526C18.2265 2.61665 17.5722 3.29476 16.8226 3.84207Z" fill="black"/>
</svg>
